# xmcd
#
# Track frame offsets:
#	150
#	14306
#	28781
#	42285
#	55446
#	71138
#	84117
#	99027
#	110804
#	123064
#	137750
#	150185
#
# Disc length: 2198 seconds
#
# Revision: 0
# Processed by: cddbd v1.5.2PL0 Copyright (c) Steve Scherf et al.
# Submitted via: EasyCDDAExtractor 16.0.6.1
#
DISCID=8f08940c
DTITLE=Μπέλλου Σωτηρία - Τα ρεμπέτικα της Σ. Μπέλλου 01
DYEAR=1997
DGENRE=Ρεμπέτικη
TTITLE0=Γράμμα θα στείλω στο Θεό [Μ. Μπακάλη-Αλ. Γκούβερη]
TTITLE1=Σε φιλίες δεν πιστεύω [Σ.Μπέλλου-Δ.Σέμση-Γ.Ροβερτάκη-Χ.Βασ/δη]
TTITLE2=Άνοιξε, άνοιξε [Γ. Παπαϊωάννου-Χαρ. Βασιλειάδη]
TTITLE3=Παραστράτησα για σένα [Κώστα Καπλάνη]
TTITLE4=Κλαμένη ήρθες μιά βραδιά [Βασ. Τσιτσάνη]
TTITLE5=Έκαψα την καλύβα μου [Μ. Μπακάλη-Κ. Γόντικα]
TTITLE6=Τι σού λέει η μάννα σου για μένα [Κ. Σκαρβέλη]
TTITLE7=Η Ζαμπέτα [Κ. Κανούλα-Σ. Παγιουμτζή]
TTITLE8=Έλα χανουμάκι μου [Γ. Ροβερτάκη-Σ. Μπέλλου]
TTITLE9=Καϋμό μέσ' στην καρδούλα μου [Κ. Σκαρβέλη]
TTITLE10=Θα κάνω πέρασμα κρυφό [Γ. Ροβερτάκη-Σ. Μπέλλου]
TTITLE11=Το παιδί που μπήκε τώρα [Γ. Μητσάκη]
EXTD=
EXTT0=
EXTT1=
EXTT2=
EXTT3=
EXTT4=
EXTT5=
EXTT6=
EXTT7=
EXTT8=
EXTT9=
EXTT10=
EXTT11=
PLAYORDER=
